<svg version="1.1" id="Capa_1" xmlns="http://www.w3.org/2000/svg" x="0" y="0" viewBox="0 0 60 60" xml:space="preserve"><path d="M48.937 21.001l8.994-8.095a1.217 1.217 0 00.003-1.808l-8.997-8.097H29.664V1a1 1 0 10-2 0v2.001H10.061a3.4 3.4 0 00-3.396 3.396v11.206A3.4 3.4 0 0010.061 21h17.604v2H11.063l-8.998 8.098a1.215 1.215 0 00.001 1.805L11.063 41h16.601v18a1 1 0 102 0V41h20.604a3.4 3.4 0 003.396-3.396V26.396A3.4 3.4 0 0050.268 23H29.664v-1.999h19.273zm2.727 5.395v11.207c0 .771-.626 1.396-1.396 1.396H11.831l-7.778-7 7.778-7h38.437c.77.001 1.396.627 1.396 1.397zm-43-8.792V6.397c0-.771.626-1.396 1.396-1.396h38.108l7.778 7-7.778 7H10.061c-.77 0-1.397-.627-1.397-1.397z"/></svg>