<svg version="1.0" xmlns="http://www.w3.org/2000/svg" width="93.333" height="93.333" viewBox="0 0 70 70"><path d="M35.3 10.3c-3.3 2.2-6.1 8.2-5.7 12.2.1 1.1 1.3 6.5 2.8 12 4.4 16.5 4.3 19.5-.5 20.8-3.3.9-6.3-2.9-7.9-10.1-1.5-7.1-3.9-9.8-7.2-8.1-1.4.8-1.9 1.9-1.7 4.2.2 1.8.6 3.7 1 4.2.5.6 1.1 2.6 1.4 4.5 1.8 10.5 11.9 16 20 11 6.4-3.9 7.2-9.7 3.4-24.2-4.1-15.6-4.2-17.1-1.8-19.6 2.5-2.8 3.4-2.8 6.4.3 3.4 3.3 3.1 4.9-1 8.1-5.8 4.4-3.5 9.7 3 6.9C60 27.2 56.9 9.4 43.3 8.4c-3.7-.3-5.5.1-8 1.9z"/></svg>