<svg xmlns="http://www.w3.org/2000/svg"><symbol id="icon-arrow" viewBox="0 0 21.825 21.825"><path d="M16.791 13.254a1.112 1.112 0 011.587 0 1.14 1.14 0 010 1.587l-6.65 6.651a1.14 1.14 0 01-.809.333c-.317 0-.603-.127-.81-.333l-6.65-6.651c-.444-.444-.444-1.143 0-1.587s1.143-.444 1.587 0l4.746 4.762V1.111A1.116 1.116 0 0110.918 0c.619 0 1.111.492 1.111 1.111v16.904l4.762-4.761z"/></symbol><symbol id="icon-facebook" viewBox="0 0 96.124 96.123"><path d="M72.089.02L59.624 0C45.62 0 36.57 9.285 36.57 23.656v10.907H24.037a1.96 1.96 0 00-1.96 1.961v15.803a1.96 1.96 0 001.96 1.96H36.57v39.876a1.96 1.96 0 001.96 1.96h16.352a1.96 1.96 0 001.96-1.96V54.287h14.654a1.96 1.96 0 001.96-1.96l.006-15.803a1.963 1.963 0 00-1.961-1.961H56.842v-9.246c0-4.444 1.059-6.7 6.848-6.7l8.397-.003a1.96 1.96 0 001.959-1.96V1.98A1.96 1.96 0 0072.089.02z"/></symbol><symbol id="icon-instagram" viewBox="0 0 512 512"><path d="M363.273 0H148.728C66.719 0 0 66.719 0 148.728v214.544C0 445.281 66.719 512 148.728 512h214.544C445.281 512 512 445.281 512 363.273V148.728C512 66.719 445.281 0 363.273 0zM472 363.272C472 423.225 423.225 472 363.273 472H148.728C88.775 472 40 423.225 40 363.273V148.728C40 88.775 88.775 40 148.728 40h214.544C423.225 40 472 88.775 472 148.728v214.544z"/><path d="M256 118c-76.094 0-138 61.906-138 138s61.906 138 138 138 138-61.906 138-138-61.906-138-138-138zm0 236c-54.037 0-98-43.963-98-98s43.963-98 98-98 98 43.963 98 98-43.963 98-98 98z"/><circle cx="396" cy="116" r="20"/></symbol><symbol id="icon-reload" viewBox="0 0 488.482 488.482"><path d="M456.382 359.741l4.1-6.6c1.2-2.3 2.4-4.6 3.5-6.9 2.3-4.7 4.8-9.2 6.8-14 3.7-9.7 7.7-19.3 10.1-29.4 3.1-10 4.4-20.3 6.1-30.6.7-5.2.7-10.4 1.1-15.6l.4-7.8v-2.8l-.1-1.8-.2-3.6-.6-14.3-2.3-16.2c-.4-2.7-.7-5.5-1.3-8l-1.9-7.6c-1.4-5-2.4-10.2-4.2-15.1-6.4-19.9-16.1-38.7-27.7-56-12.1-17.1-26.6-32.3-42.7-45.6-15.7-13-33.1-24.5-52-33.1-7.5-3.2-15.3-6.1-23-8.8l-11.9-3.2c-4-1-7.9-2.3-12-2.8l-12.2-2-6.1-1-6.2-.4-12.3-.7-3.1-.2h-2.6l-1.4.1-5.6.2-11.3.5c-1.8 0-4 .4-6.1.7l-6.4.9-12.8 1.9-12 3c-4 1.1-8.1 1.8-11.9 3.4l-11.6 4.2-5.8 2.2-5.6 2.7-11.1 5.4c-58.8 30.5-101.2 89.3-112 153.5-.6 4.6-1.1 9.1-1.5 13.4-.4 4.3-.8 8.5-.5 12.5.1 2.4.2 4.6.4 6.9-11.1-17.4-23.7-33.9-34-51.8-.8-1.4-5.2-1.7-7.7-1-4.9 1.3-7.2 5.4-8.1 9.7-2.9 14.3.3 27.3 6.4 38.6 11.5 21.3 22.1 43.2 35.8 63.2l.3.5c.5.7 1 1.4 1.7 2.1 7 7.6 18.9 8.1 26.6 1 4.9-4.5 9.6-9.2 14.1-14.2 3.1-2.3 6.2-4.5 9.2-6.9 19.1-15 37.5-30.9 52.7-50.1 4.3-5.5 5.5-12.7-1-19.1-5.9-5.8-13.6-7.1-19.5-3.1-10.6 7.2-21.3 14.3-30.6 23-8.6 8-16.8 16.4-24.9 24.9.5-1.6 1-3.3 1.5-5.2 1.5-5.2 3-11.1 4.2-17.9.4-3.4 1.7-6.8 2.4-10.5.8-3.7 1.6-7.5 2.4-11.5 7-28.5 20.7-55.1 39.3-77.5 18.5-22.5 42.5-40 68.5-52.3 5.1-2.8 10.7-4.5 16.1-6.6 5.4-2.3 11-3.5 16.7-5.1 2.8-.7 5.6-1.7 8.4-2.1l8.2-1.3 8.3-1.4 9.5-.6c23.4-1.5 46.9 1.1 69.2 8.2 44.7 13.9 84.1 45.4 107.3 86.8l6 14.7c1.1 2.4 1.8 5 2.6 7.5l2.3 7.6c1.8 5 2.6 10.2 3.7 15.3l1.6 7.7c.4 2.5.5 5 .8 7.5l.8 7.4c.1 1.3.3 2.4.4 3.8l.1 4.3.1 8.6.1 4.3v2.2l-.1 1-1.3 15.6c-.5 5.2-1.8 10.3-2.6 15.4-8.3 40.6-29.6 78.7-61.3 105.6-15.7 13.6-33.6 24.5-52.9 32.2-4.9 1.7-9.7 3.8-14.7 5.2l-15.1 3.9-14.6 2.3c-2.2.5-5.2.6-8.1.8l-8.6.5-4.3.2-1.7.1h-1.4l-7.8-.2c-5.2-.4-10.4-.7-15.5-1.5-10.3-1.4-20.4-3.7-30.3-6.9-19.8-6.3-38.3-16.3-54.6-28.9-2.9-2.3-7.1-4.6-10.9-6.4-3.8-1.6-8.1-3.9-10.3-4.3-4.6-1-5.7 1-4.5 5 .6 1.9 1.7 4.4 3.3 7.1 1.6 2.6 3.6 5.5 6.1 8.5 16.3 20 40.6 38 70.1 48.8 14.7 5.4 30.6 9.1 47.1 10.4l6.2.4 1.5.1.8.1h4.3c3.9-.1 7.8-.1 11.8-.2l5.9-.1 6.4-.8 12.9-1.7c40.2-7.1 78.4-25.4 108.8-53.2 15.2-13.6 28.9-29.3 39.4-47.1z"/></symbol><symbol id="icon-share" viewBox="0 0 64 64"><path d="M63.386 16.193l.002-.002a2.359 2.359 0 00.405-.688c.032-.076.053-.148.076-.225.058-.191.094-.389.106-.596.006-.076.018-.148.016-.226 0-.04.01-.076.008-.115a2.601 2.601 0 00-.136-.687c-.006-.023-.022-.041-.03-.064a2.441 2.441 0 00-.363-.645c-.021-.027-.028-.063-.05-.09L53.109.709c-.789-.93-2.084-.948-2.894-.037-.808.91-.823 2.402-.032 3.334l5.558 6.549c-8.121-1.076-16.104.633-16.481.717C14.614 15.739-2.827 38.499.38 62.008.539 63.172 1.408 64 2.399 64c.106 0 .212-.009.32-.027 1.116-.203 1.878-1.409 1.704-2.696-2.857-20.94 13.056-41.282 35.537-45.358.103-.024 8.351-1.794 16.117-.574L47.5 20.438c-1.005.598-1.398 2.02-.881 3.177.516 1.159 1.748 1.608 2.756 1.017l13.52-8.028c.183-.111.347-.25.491-.411z"/></symbol><symbol id="icon-telegram" viewBox="0 0 300 300"><path d="M5.299 144.645l69.126 25.8 26.756 86.047c1.712 5.511 8.451 7.548 12.924 3.891l38.532-31.412a11.496 11.496 0 0114.013-.391l69.498 50.457c4.785 3.478 11.564.856 12.764-4.926L299.823 29.22c1.31-6.316-4.896-11.585-10.91-9.259L5.218 129.402c-7.001 2.7-6.94 12.612.081 15.243zm91.57 12.066l135.098-83.207c2.428-1.491 4.926 1.792 2.841 3.726L123.313 180.87a23.112 23.112 0 00-7.163 13.829l-3.798 28.146c-.503 3.758-5.782 4.131-6.819.494l-14.607-51.325c-1.673-5.854.765-12.107 5.943-15.303z"/></symbol><symbol id="icon-tick" viewBox="0 0 488.878 488.878"><path d="M143.294 340.058l-92.457-92.456L0 298.439l122.009 122.008.14-.141 22.274 22.274L488.878 98.123l-51.823-51.825z"/></symbol><symbol id="icon-twitter" viewBox="0 0 612 612"><path d="M612 116.258a250.714 250.714 0 01-72.088 19.772c25.929-15.527 45.777-40.155 55.184-69.411-24.322 14.379-51.169 24.82-79.775 30.48-22.907-24.437-55.49-39.658-91.63-39.658-69.334 0-125.551 56.217-125.551 125.513 0 9.828 1.109 19.427 3.251 28.606-104.326-5.24-196.835-55.223-258.75-131.174-10.823 18.51-16.98 40.078-16.98 63.101 0 43.559 22.181 81.993 55.835 104.479a125.556 125.556 0 01-56.867-15.756v1.568c0 60.806 43.291 111.554 100.693 123.104-10.517 2.83-21.607 4.398-33.08 4.398-8.107 0-15.947-.803-23.634-2.333 15.985 49.907 62.336 86.199 117.253 87.194-42.947 33.654-97.099 53.655-155.916 53.655-10.134 0-20.116-.612-29.944-1.721 55.567 35.681 121.536 56.485 192.438 56.485 230.948 0 357.188-191.291 357.188-357.188l-.421-16.253c24.666-17.593 46.005-39.697 62.794-64.861z"/></symbol><symbol id="icon-vk" viewBox="0 0 548.358 548.358"><path d="M545.451 400.298c-.664-1.431-1.283-2.618-1.858-3.569-9.514-17.135-27.695-38.167-54.532-63.102l-.567-.571-.284-.28-.287-.287h-.288c-12.18-11.611-19.893-19.418-23.123-23.415-5.91-7.614-7.234-15.321-4.004-23.13 2.282-5.9 10.854-18.36 25.696-37.397 7.807-10.089 13.99-18.175 18.556-24.267 32.931-43.78 47.208-71.756 42.828-83.939l-1.701-2.847c-1.143-1.714-4.093-3.282-8.846-4.712-4.764-1.427-10.853-1.663-18.278-.712l-82.224.568c-1.332-.472-3.234-.428-5.712.144l-3.713.859-1.431.715-1.136.859c-.952.568-1.999 1.567-3.142 2.995-1.137 1.423-2.088 3.093-2.848 4.996-8.952 23.031-19.13 44.444-30.553 64.238-7.043 11.803-13.511 22.032-19.418 30.693-5.899 8.658-10.848 15.037-14.842 19.126-4 4.093-7.61 7.372-10.852 9.849-3.237 2.478-5.708 3.525-7.419 3.142-1.715-.383-3.33-.763-4.859-1.143-2.663-1.714-4.805-4.045-6.42-6.995-1.622-2.95-2.714-6.663-3.285-11.136-.568-4.476-.904-8.326-1-11.563-.089-3.233-.048-7.806.145-13.706.198-5.903.287-9.897.287-11.991 0-7.234.141-15.085.424-23.555.288-8.47.521-15.181.716-20.125.194-4.949.284-10.185.284-15.705s-.336-9.849-1-12.991a44.442 44.442 0 00-2.99-9.137c-1.335-2.95-3.289-5.232-5.853-6.852-2.569-1.618-5.763-2.902-9.564-3.856-10.089-2.283-22.936-3.518-38.547-3.71-35.401-.38-58.148 1.906-68.236 6.855-3.997 2.091-7.614 4.948-10.848 8.562-3.427 4.189-3.905 6.475-1.431 6.851 11.422 1.711 19.508 5.804 24.267 12.275l1.715 3.429c1.334 2.474 2.666 6.854 3.999 13.134 1.331 6.28 2.19 13.227 2.568 20.837.95 13.897.95 25.793 0 35.689-.953 9.9-1.853 17.607-2.712 23.127-.859 5.52-2.143 9.993-3.855 13.418-1.715 3.426-2.856 5.52-3.428 6.28-.571.76-1.047 1.239-1.425 1.427a21.387 21.387 0 01-7.71 1.431c-2.667 0-5.901-1.334-9.707-4-3.805-2.666-7.754-6.328-11.847-10.992-4.093-4.665-8.709-11.184-13.85-19.558-5.137-8.374-10.467-18.271-15.987-29.691l-4.567-8.282c-2.855-5.328-6.755-13.086-11.704-23.267-4.952-10.185-9.329-20.037-13.134-29.554-1.521-3.997-3.806-7.04-6.851-9.134l-1.429-.859c-.95-.76-2.475-1.567-4.567-2.427a30.301 30.301 0 00-6.567-1.854l-78.229.568c-7.994 0-13.418 1.811-16.274 5.428l-1.143 1.711c-.571.953-.859 2.475-.859 4.57 0 2.094.571 4.664 1.714 7.707 11.42 26.84 23.839 52.725 37.257 77.659 13.418 24.934 25.078 45.019 34.973 60.237 9.897 15.229 19.985 29.602 30.264 43.112 10.279 13.515 17.083 22.176 20.412 25.981 3.333 3.812 5.951 6.662 7.854 8.565l7.139 6.851c4.568 4.569 11.276 10.041 20.127 16.416 8.853 6.379 18.654 12.659 29.408 18.85 10.756 6.181 23.269 11.225 37.546 15.126 14.275 3.905 28.169 5.472 41.684 4.716h32.834c6.659-.575 11.704-2.669 15.133-6.283l1.136-1.431c.764-1.136 1.479-2.901 2.139-5.276.668-2.379 1-5 1-7.851-.195-8.183.428-15.558 1.852-22.124 1.423-6.564 3.045-11.513 4.859-14.846 1.813-3.33 3.859-6.14 6.136-8.418 2.282-2.283 3.908-3.666 4.862-4.142.948-.479 1.705-.804 2.276-.999 4.568-1.522 9.944-.048 16.136 4.429 6.187 4.473 11.99 9.996 17.418 16.56 5.425 6.57 11.943 13.941 19.555 22.124 7.617 8.186 14.277 14.271 19.985 18.274l5.708 3.426c3.812 2.286 8.761 4.38 14.853 6.283 6.081 1.902 11.409 2.378 15.984 1.427l73.087-1.14c7.229 0 12.854-1.197 16.844-3.572 3.998-2.379 6.373-5 7.139-7.851.764-2.854.805-6.092.145-9.712-.677-3.611-1.344-6.136-2.008-7.563z"/></symbol></svg>